<svg xmlns="http://www.w3.org/2000/svg" width="320" height="320" viewBox="0 0 320 320"><rect width="320" height="320" fill="#000" rx="160"/><path fill="#fff" d="M176 48h-32a64.07 64.07 0 0 0-64 64v96a64.069 64.069 0 0 0 64 64h32a64.068 64.068 0 0 0 64-64v-96a64.07 64.07 0 0 0-64-64Zm2.34 146.34a8.004 8.004 0 0 1 11.32 11.32l-24 24a7.986 7.986 0 0 1-5.66 2.346 8 8 0 0 1-5.66-2.346l-24-24a8.004 8.004 0 0 1 11.32-11.32L152 204.69v-89.38l-10.34 10.35a8.004 8.004 0 0 1-11.32-11.32l24-24a8 8 0 0 1 11.32 0l24 24a8.004 8.004 0 0 1-11.32 11.32L168 115.31v89.38l10.34-10.35Z"/></svg>